<?xml version="1.0" standalone="no"?>
<!DOCTYPE svg PUBLIC "-//W3C//DTD SVG 20010904//EN"
 "http://www.w3.org/TR/2001/REC-SVG-20010904/DTD/svg10.dtd">
<svg version="1.0" xmlns="http://www.w3.org/2000/svg"
 width="640.000000pt" height="640.000000pt" viewBox="0 0 640.000000 640.000000"
 preserveAspectRatio="xMidYMid meet">
<metadata>
Created by potrace 1.11, written by Peter Selinger 2001-2013
</metadata>
<g transform="translate(0.000000,640.000000) scale(0.100000,-0.100000)"
fill="#000000" stroke="none">
<path d="M0 4440 l0 -1960 26 10 c29 11 135 13 184 4 34 -7 39 -15 74 -119 21
-59 21 -59 61 -60 58 0 65 10 48 70 -36 125 -40 171 -19 201 14 18 16 18 48 1
31 -17 68 -65 68 -90 0 -7 6 -23 13 -37 26 -50 49 -121 44 -134 -3 -8 -23 -17
-44 -20 -21 -4 -60 -10 -88 -15 -27 -4 -75 -19 -105 -33 -30 -15 -93 -44 -140
-66 -88 -41 -153 -91 -94 -72 16 5 59 20 95 34 47 17 95 26 165 31 54 3 124 9
154 14 83 13 157 3 179 -25 19 -24 36 -99 45 -192 5 -50 4 -52 -19 -52 -13 0
-39 6 -57 14 -43 18 -101 33 -218 57 -140 29 -177 33 -165 21 9 -9 84 -28 235
-57 65 -13 130 -35 140 -46 3 -3 25 -9 49 -13 24 -4 50 -14 57 -24 15 -19 19
-68 6 -76 -4 -2 -52 6 -107 20 -162 39 -189 45 -251 55 -32 5 -93 16 -134 24
-41 8 -112 20 -157 27 l-82 12 -4 95 c-1 53 -3 15 -3 -84 0 -99 2 -149 3 -111
l4 68 47 -7 c26 -4 54 -10 62 -15 13 -6 167 -43 275 -65 257 -52 325 -73 335
-101 11 -31 0 -325 -16 -399 -20 -100 -40 -181 -59 -245 -35 -117 -45 -207
-34 -313 5 -55 14 -122 20 -150 13 -69 11 -151 -3 -184 -7 -15 -25 -41 -40
-57 -35 -37 -45 -87 -28 -146 7 -25 13 -56 12 -70 -2 -41 7 -70 23 -70 17 0
39 -46 31 -66 -3 -9 -68 -12 -258 -13 -292 -1 -365 4 -371 28 -3 9 -5 4 -6
-11 l-1 -28 3200 0 3200 0 -2 2603 c-2 1431 -4 2464 -5 2295 l-3 -308 -88 6
c-48 3 -116 1 -152 -6 -66 -11 -322 -31 -645 -50 -181 -10 -234 -16 -400 -45
-171 -30 -270 -46 -390 -60 -66 -8 -194 -23 -285 -34 -173 -21 -291 -40 -400
-66 -91 -22 -234 -43 -375 -55 -66 -5 -145 -14 -175 -20 -50 -9 -233 -36 -320
-47 -34 -5 -35 -6 -32 -44 4 -36 2 -39 -21 -39 -22 0 -26 6 -35 48 -6 26 -14
68 -17 94 -3 26 -10 50 -14 53 -5 2 -12 31 -16 62 -4 32 -11 63 -16 69 -15 18
-28 150 -19 189 9 41 26 58 134 134 42 29 80 61 85 70 10 18 18 133 28 396 8
186 8 227 4 431 -2 82 1 129 9 145 7 12 15 45 19 72 5 43 11 53 36 67 32 18
31 17 26 141 -1 33 -36 69 -66 69 -14 0 -25 5 -25 10 0 6 -6 10 -14 10 -19 0
-46 38 -46 64 0 11 -20 39 -45 62 -25 22 -45 49 -45 58 0 16 89 17 1615 15
888 -1 1618 0 1622 4 3 4 -1419 7 -3160 7 l-3166 0 -1 -1960z m2760 299 c0
-24 -23 -21 -28 4 -2 10 3 17 12 17 10 0 16 -9 16 -21z m-15 -52 c14 -30 15
-40 5 -52 -18 -22 -25 -19 -54 25 -30 46 -33 77 -8 82 21 5 34 -8 57 -55z
m-140 -99 c39 -6 83 -11 100 -12 27 -1 30 -5 37 -45 4 -24 3 -84 -2 -133 -9
-94 -9 -93 -109 -248 -40 -61 -58 -81 -94 -105 l-25 -16 -5 68 c-3 37 -9 109
-15 158 -6 50 -13 145 -16 212 -5 119 -5 122 17 126 37 7 40 7 112 -5z m3785
-587 c0 -303 -4 -552 -8 -555 -4 -2 -27 -2 -50 1 l-42 6 0 169 c0 129 3 168
13 167 6 -1 23 0 37 1 23 1 23 3 -10 17 -24 11 -67 16 -135 16 -83 0 -113 -4
-177 -27 l-77 -27 -34 35 c-39 38 -33 60 14 50 23 -5 23 -5 5 10 -18 15 -18
16 -2 16 10 0 30 -9 46 -20 l28 -20 6 30 c3 18 12 30 21 30 12 0 15 14 15 71
0 63 2 70 17 65 16 -6 16 -6 0 12 -18 19 -22 48 -9 55 4 3 30 8 59 12 l52 7 4
-34 c2 -18 5 2 5 45 1 50 -2 76 -8 72 -5 -3 -10 1 -10 10 0 9 4 14 9 10 6 -3
13 10 17 30 3 19 10 32 15 29 5 -3 9 -1 9 5 0 5 -5 11 -11 13 -8 3 -9 15 -4
36 3 18 11 30 16 26 5 -3 9 4 9 16 0 11 -6 23 -14 26 -8 3 -13 16 -12 28 0 14
6 22 14 19 13 -5 17 9 5 21 -4 3 -8 15 -10 26 -2 15 5 20 35 25 20 4 55 10 77
15 22 4 50 8 63 9 l22 1 0 -549z m-226 284 c-4 -8 -8 -15 -10 -15 -2 0 -4 7
-4 15 0 8 4 15 10 15 5 0 7 -7 4 -15z m-2294 -211 c335 -15 395 -22 395 -44 0
-23 25 -37 85 -46 51 -8 55 -11 58 -38 2 -16 -1 -33 -7 -39 -39 -39 -285 -87
-556 -107 -227 -18 -248 -23 -130 -31 55 -4 153 -8 217 -9 101 -2 116 -4 111
-18 -5 -11 -3 -13 7 -7 8 5 11 4 7 -2 -3 -5 -25 -15 -49 -22 -24 -7 -61 -19
-83 -26 -22 -7 -85 -23 -140 -35 -55 -12 -109 -25 -120 -30 -11 -5 -76 -20
-145 -35 -69 -14 -141 -30 -160 -35 -19 -5 -73 -19 -120 -30 -88 -21 -141 -39
-150 -50 -3 -4 -30 -14 -60 -24 -30 -10 -63 -24 -75 -33 -18 -13 -16 -14 30
-8 28 4 59 10 70 15 11 5 81 14 155 20 128 10 172 16 300 40 101 20 130 27
142 37 41 33 625 128 673 110 27 -11 -26 -57 -66 -57 -19 0 -46 -7 -62 -15
-15 -8 -55 -17 -88 -21 -33 -4 -77 -13 -97 -20 -34 -12 -24 -13 108 -13 80 0
177 4 215 9 249 31 345 50 345 71 0 5 18 18 40 29 36 18 56 20 222 18 149 -2
190 1 223 14 62 25 125 32 126 13 1 -8 3 -19 4 -25 1 -5 3 -44 4 -85 0 -42 5
-75 11 -75 6 0 10 31 10 74 0 70 1 74 21 69 11 -3 37 -1 57 5 20 5 87 19 147
31 61 12 117 23 125 25 8 2 27 7 43 11 15 4 27 3 28 -1 10 -75 -1 -144 -22
-144 -5 0 -9 -11 -9 -25 0 -29 -34 -52 -54 -36 -7 6 -33 8 -62 5 -59 -7 -146
9 -198 37 l-37 20 2 -51 c2 -27 0 -52 -3 -55 -3 -3 -52 -1 -109 4 -57 6 -124
11 -149 12 -25 2 -54 8 -65 16 -11 7 -30 13 -42 13 -21 0 -23 4 -23 58 -1 66
-17 53 -21 -16 l-3 -42 -42 0 -42 0 -7 51 c-8 57 -3 66 40 72 17 2 1 4 -35 5
-69 0 -140 -13 -140 -27 0 -5 -14 -14 -30 -21 -17 -7 -35 -21 -41 -31 -9 -18
-5 -19 67 -19 l77 0 -7 40 c-6 39 -6 40 24 40 25 0 30 -4 30 -24 0 -14 -4 -28
-10 -31 -5 -3 -10 -15 -10 -25 0 -22 -57 -55 -63 -37 -2 8 -9 6 -20 -4 -9 -9
-13 -19 -10 -23 4 -3 1 -6 -5 -6 -7 0 -12 5 -12 10 0 6 -5 10 -11 10 -6 0 -8
-7 -5 -15 4 -12 2 -14 -10 -7 -10 6 -31 4 -56 -5 -22 -7 -85 -17 -141 -22
l-102 -8 80 -2 c107 -2 125 -7 126 -40 2 -23 2 -23 6 -4 4 22 8 22 96 18 426
-21 678 -23 820 -5 59 7 110 10 113 7 3 -3 1 -27 -4 -54 -12 -57 -8 -61 78
-80 30 -6 89 -19 130 -28 41 -9 107 -23 145 -30 39 -8 99 -21 135 -30 36 -9
110 -24 165 -34 56 -10 93 -21 85 -24 -9 -4 -6 -5 8 -3 23 4 27 -1 14 -22 -7
-10 -29 -9 -113 7 -217 41 -485 105 -514 123 -5 3 -35 9 -65 13 -30 4 -63 12
-73 17 -31 16 -178 12 -211 -5 -16 -9 -34 -13 -41 -11 -7 3 -15 -1 -18 -9 -4
-10 -29 -17 -73 -22 -37 -4 -92 -18 -122 -31 -59 -26 -82 -30 -82 -14 0 6 -7
10 -15 10 -8 0 -15 -4 -15 -10 0 -5 -5 -10 -12 -10 -6 0 -22 -10 -34 -21 -19
-17 -36 -22 -91 -23 -65 -1 -68 0 -65 22 2 12 -2 22 -7 22 -6 0 -11 -10 -11
-23 0 -19 -5 -23 -32 -22 -31 0 -33 2 -36 42 -4 51 -7 49 158 57 134 7 170 13
177 33 12 31 -13 36 -109 23 -66 -8 -108 -9 -143 -2 -136 27 -202 44 -222 57
-36 24 -169 30 -260 11 -45 -9 -125 -23 -180 -31 -54 -8 -119 -19 -145 -23
-46 -8 -58 -7 -58 8 0 3 22 12 50 19 27 7 53 18 57 24 4 7 0 8 -13 2 -35 -15
-149 -34 -204 -35 -53 -1 -90 -16 -90 -38 0 -14 -55 -65 -74 -68 -18 -2 -22
11 -6 21 24 15 9 35 -25 35 -32 0 -35 -3 -35 -29 0 -28 -1 -28 -74 -34 -55 -4
-89 -13 -132 -36 -33 -16 -72 -33 -87 -37 -21 -5 -26 -9 -17 -18 8 -8 13 -7
20 4 5 8 11 12 14 9 12 -12 -91 -89 -119 -89 -8 0 -16 -4 -20 -9 -3 -5 -19
-12 -35 -16 -17 -4 -36 -12 -43 -19 -6 -7 -34 -23 -62 -36 -27 -12 -60 -32
-72 -43 -16 -14 -29 -18 -48 -13 -17 4 -24 3 -20 -4 3 -5 2 -10 -4 -10 -9 0
-31 31 -31 44 0 3 17 7 38 8 20 1 6 4 -33 7 -67 6 -70 7 -73 34 -2 15 -9 27
-15 27 -7 0 -14 11 -15 25 -2 28 8 34 88 55 178 47 398 122 396 135 -2 17 -70
8 -219 -29 -78 -19 -200 -49 -272 -66 -71 -17 -138 -35 -147 -40 -10 -6 -26
-10 -36 -10 -20 0 -130 -34 -179 -56 -17 -8 -38 -14 -46 -14 -9 0 -22 -7 -31
-15 -20 -21 -79 -45 -109 -45 -12 0 -49 -7 -81 -15 -57 -15 -138 -30 -242 -44
l-50 -7 -13 71 c-17 89 -28 111 -93 173 l-53 52 30 0 c31 -1 99 -16 195 -45
126 -38 200 -48 287 -36 98 12 132 28 195 91 36 36 51 59 62 102 24 92 33 100
161 149 102 39 112 50 120 122 7 60 9 64 50 93 24 16 53 43 65 61 22 31 22 37
12 135 -6 57 -13 112 -17 124 -6 20 -2 21 68 27 95 7 141 35 182 109 15 26 19
27 113 31 106 5 186 2 632 -19z m2150 -38 c0 -3 -4 -8 -10 -11 -5 -3 -10 -1
-10 4 0 6 5 11 10 11 6 0 10 -2 10 -4z m-3162 -184 c3 -71 3 -71 -25 -78 -15
-4 -31 -11 -34 -16 -7 -10 -121 7 -184 27 -37 12 -40 16 -43 53 -4 53 22 72
98 73 30 1 80 4 110 9 30 4 60 6 65 5 6 -1 11 -34 13 -73z m2993 -51 c-7 -4
-9 -16 -6 -27 6 -17 5 -17 -5 -2 -6 10 -8 29 -4 44 6 23 8 24 17 9 6 -12 6
-20 -2 -24z m34 -10 c3 -5 1 -12 -5 -16 -5 -3 -10 1 -10 9 0 18 6 21 15 7z
m-3015 -46 c0 -8 -6 -15 -14 -15 -8 0 -22 -3 -31 -6 -15 -6 -15 -4 -4 15 16
24 49 28 49 6z m3408 -36 l3 -47 -251 -7 c-172 -5 -255 -4 -262 3 -17 17 -1
42 27 42 15 0 35 5 45 10 10 6 55 12 100 15 45 2 87 8 93 12 12 8 165 21 217
19 22 -1 25 -6 28 -47z m-963 1 c-2 -31 -15 -37 -15 -7 0 15 4 27 8 27 5 0 8
-9 7 -20z m-35 -6 c0 -14 -10 -15 -65 -11 -43 3 -73 0 -91 -9 -30 -16 -46 -18
-24 -4 20 13 -1 13 -34 0 -19 -7 -24 -6 -20 4 10 25 49 35 142 35 78 1 92 -1
92 -15z m-2530 -128 c0 -3 -4 -8 -10 -11 -5 -3 -10 -1 -10 4 0 6 5 11 10 11 6
0 10 -2 10 -4z m2860 -116 c-36 -11 -52 -11 -45 0 3 6 21 10 38 9 31 -1 31 -1
7 -9z m-1503 -296 c-3 -3 -12 -4 -19 -1 -8 3 -5 6 6 6 11 1 17 -2 13 -5z m-47
-16 c0 -5 -5 -6 -10 -3 -6 3 -17 -1 -26 -9 -8 -9 -22 -16 -30 -16 -10 0 -14
-14 -15 -47 l-2 -48 -10 59 c-8 46 -7 60 4 66 18 12 89 10 89 -2z m1632 -10
c-5 -19 -7 -20 -10 -5 -2 9 -7 17 -10 17 -4 0 -6 -83 -4 -185 2 -102 0 -185
-5 -185 -5 0 -15 6 -21 12 -10 10 -15 10 -22 -1 -5 -9 -9 56 -10 162 l-1 176
28 14 c44 23 62 21 55 -5z m-1595 -10 c-3 -8 -6 -5 -6 6 -1 11 2 17 5 13 3 -3
4 -12 1 -19z m1658 12 c7 -12 -2 -12 -30 0 -19 8 -19 9 2 9 12 1 25 -3 28 -9z
m-4563 -32 c-14 -55 -108 -173 -147 -185 -35 -10 -68 -6 -59 8 3 6 12 5 22 -3
15 -12 16 -11 4 4 -15 18 -15 18 60 83 13 11 37 37 53 59 16 21 38 42 49 46
12 5 22 9 23 9 0 1 -1 -9 -5 -21z m4643 12 c3 -6 -1 -7 -9 -4 -18 7 -21 14 -7
14 6 0 13 -4 16 -10z m-1150 -95 c-51 -19 -70 -19 -85 0 -11 13 -4 15 56 15
l69 -1 -40 -14z m-206 -50 c-2 -44 -6 -55 -20 -55 -9 0 -19 8 -22 18 -2 11
-14 21 -25 25 -18 4 -20 2 -12 -12 8 -16 1 -17 -75 -17 -65 1 -81 4 -73 14 6
6 7 13 2 13 -5 1 -13 2 -19 4 -5 1 -18 3 -27 3 -27 3 -22 32 5 33 12 0 69 6
127 14 58 7 113 13 123 14 16 1 18 -7 16 -54z m1011 33 c0 -6 -7 -8 -15 -4
-11 4 -20 -6 -31 -34 -9 -22 -21 -40 -26 -40 -16 0 1 53 25 76 22 21 47 22 47
2z m-755 2 c3 -5 1 -10 -4 -10 -6 0 -11 5 -11 10 0 6 2 10 4 10 3 0 8 -4 11
-10z m1061 -32 c2 -18 6 -43 9 -55 3 -13 6 -57 6 -98 1 -41 5 -75 10 -75 5 0
9 27 9 61 0 37 4 58 10 54 6 -3 10 -35 10 -71 0 -51 -3 -64 -16 -64 -8 0 -12
-4 -9 -10 3 -5 0 -10 -8 -10 -11 0 -16 24 -23 103 -4 56 -8 111 -7 122 1 11
-1 14 -3 8 -10 -24 -19 -13 -18 21 3 63 24 73 30 14z m-1761 12 c3 -5 1 -10
-4 -10 -6 0 -11 5 -11 10 0 6 2 10 4 10 3 0 8 -4 11 -10z m1872 -12 c-3 -8 -6
-5 -6 6 -1 11 2 17 5 13 3 -3 4 -12 1 -19z m67 -5 c6 -21 9 -66 7 -108 -1 -25
-3 -27 -12 -12 -5 9 -19 17 -29 17 -11 0 -20 5 -20 11 0 5 5 7 10 4 6 -4 10
13 10 45 0 32 -4 49 -10 45 -5 -3 -10 -1 -10 4 0 19 48 12 54 -6z m-49 -46
c-1 -15 -8 -21 -19 -19 -24 4 -31 -26 -12 -58 30 -52 16 -208 -15 -159 -14 23
-11 229 3 227 7 -2 14 7 16 19 4 29 29 19 27 -10z m240 7 c22 -14 25 -24 25
-75 l0 -59 -47 7 c-27 3 -51 11 -55 17 -11 16 -10 58 3 95 12 35 36 40 74 15z
m-1570 -44 c302 -16 485 -29 495 -35 5 -3 10 -14 10 -23 0 -12 -21 -26 -72
-45 -66 -25 -85 -27 -193 -27 -66 1 -185 6 -265 12 -80 5 -174 11 -210 12 -36
1 -107 6 -157 10 l-93 8 0 30 c0 16 -5 38 -10 49 -10 18 -6 19 157 18 92 0
245 -4 338 -9z m1250 0 c3 -5 1 -10 -4 -10 -6 0 -11 5 -11 10 0 6 2 10 4 10 3
0 8 -4 11 -10z m-125 -72 c-1 -68 -2 -71 -15 -48 -22 38 -18 120 6 120 5 0 9
-33 9 -72z m190 62 c0 -5 -4 -10 -10 -10 -5 0 -10 5 -10 10 0 6 5 10 10 10 6
0 10 -4 10 -10z m-5136 -126 c22 -21 21 -54 -1 -54 -35 0 -45 14 -32 43 14 32
13 31 33 11z m4326 -12 c0 -25 -114 -99 -180 -117 -3 -1 -14 -6 -24 -10 -13
-6 -21 -5 -24 3 -5 17 -22 15 -22 -3 0 -10 -10 -15 -30 -15 -32 0 -37 9 -18
28 18 18 28 15 21 -5 -6 -17 -5 -16 15 0 12 11 18 25 15 35 -5 12 -2 14 12 9
14 -6 15 -5 7 5 -9 12 -26 13 -92 9 -11 0 -20 -8 -20 -18 0 -9 -3 -14 -6 -10
-3 3 -3 14 0 25 6 17 17 19 101 20 84 1 102 4 157 31 73 35 88 38 88 13z
m-4436 -100 c-4 -18 -11 -32 -16 -32 -5 0 -6 5 -3 10 3 6 2 10 -4 10 -5 0 -12
-10 -14 -22 l-4 -23 -2 23 c0 12 6 25 15 29 13 5 13 7 2 14 -10 7 -9 9 5 9 9
0 17 5 17 12 0 6 2 9 5 6 3 -3 2 -19 -1 -36z m641 18 c3 -5 26 -10 50 -10 66
0 75 -6 75 -52 0 -36 -12 -62 -52 -113 -5 -5 -17 -22 -28 -37 -11 -14 -41 -40
-67 -57 -43 -28 -48 -30 -64 -15 -39 35 -30 106 11 84 25 -13 30 -13 30 4 0 8
-11 17 -24 20 -21 5 -25 13 -31 75 -10 98 -4 111 50 111 24 0 47 -4 50 -10z
m210 -20 c3 -5 6 -33 7 -61 0 -44 4 -56 32 -83 37 -36 96 -119 96 -135 0 -6 5
-11 10 -11 6 0 10 -7 10 -15 0 -8 89 -103 198 -212 190 -191 200 -202 244
-293 72 -148 79 -169 88 -270 5 -52 16 -120 25 -150 21 -71 26 -127 30 -340 3
-176 1 -205 -30 -445 -20 -152 -20 -128 -7 -371 11 -204 10 -230 -16 -236 -10
-3 -238 -5 -508 -6 l-490 -2 -2 177 c-2 267 -11 508 -22 598 -20 152 -25 351
-17 600 4 137 12 254 17 259 6 6 41 3 92 -7 46 -9 115 -21 153 -27 66 -9 113
-19 260 -54 119 -27 195 -50 195 -58 0 -4 4 -8 9 -8 5 0 43 -16 84 -35 41 -19
79 -35 85 -35 6 0 12 -3 14 -7 3 -9 102 -63 113 -63 16 0 -23 35 -90 80 -84
56 -220 130 -240 130 -8 0 -15 4 -15 8 0 4 -33 16 -72 25 -40 10 -102 27 -138
37 -93 26 -229 48 -345 55 -55 4 -106 12 -112 17 -7 6 -13 26 -13 44 0 31 3
34 29 34 16 0 51 -7 77 -15 27 -7 110 -24 184 -35 74 -12 153 -28 175 -35 22
-7 67 -16 100 -20 33 -4 65 -11 70 -15 6 -4 25 -10 42 -12 26 -4 30 -2 22 8
-6 7 -21 16 -32 20 -12 3 -35 12 -52 19 -16 7 -70 23 -120 35 -49 12 -106 25
-125 30 -66 16 -255 40 -312 40 -52 0 -58 2 -58 21 0 11 -5 29 -10 39 -7 13
-7 21 0 25 8 5 7 11 -1 21 -12 15 -9 65 11 169 5 28 9 107 9 178 1 77 5 127
11 127 6 0 10 -4 10 -10 0 -5 7 -10 15 -10 10 0 15 -7 13 -17 -9 -53 138 21
220 111 42 46 52 74 52 142 0 50 10 68 25 44z m3645 -65 c0 -79 -13 -122 -39
-129 -9 -2 -88 -3 -176 -2 -155 1 -160 2 -163 22 -3 18 3 22 40 26 52 6 121 4
210 -7 l66 -8 -3 54 c-1 30 -6 62 -10 72 -12 30 2 47 40 47 l35 0 0 -75z
m-4580 33 c0 -6 -6 -5 -15 2 -8 7 -15 14 -15 16 0 2 7 1 15 -2 8 -4 15 -11 15
-16z m30 2 c0 -5 -4 -10 -10 -10 -5 0 -10 5 -10 10 0 6 5 10 10 10 6 0 10 -4
10 -10z m3371 -115 c27 -6 29 -9 16 -17 -10 -5 -22 -6 -27 -3 -6 3 -10 1 -10
-5 0 -7 -6 -10 -12 -7 -7 2 -26 -4 -43 -13 -16 -10 -39 -20 -50 -22 -11 -1
-23 -7 -27 -13 -4 -5 -16 -1 -30 10 -19 17 -21 17 -8 2 12 -16 12 -20 -1 -28
-18 -11 -35 -5 -31 10 1 7 -2 10 -8 6 -6 -3 -8 -10 -5 -15 7 -11 -52 -31 -70
-24 -20 8 -20 68 0 84 39 33 221 53 306 35z m-35 -100 c14 -35 -5 -64 -49 -75
-23 -6 -54 -17 -69 -25 -14 -8 -33 -15 -43 -15 -9 0 -28 -6 -43 -14 -15 -7
-44 -16 -64 -20 l-38 -7 0 46 0 45 40 0 c61 0 240 53 240 71 0 15 20 10 26 -6z
m-3101 -123 c5 -59 8 -152 8 -207 -2 -171 -1 -167 -20 -163 -20 4 -30 38 -48
168 -12 91 -24 139 -47 187 -8 17 -7 28 6 48 9 14 21 25 26 25 6 0 10 9 10 20
0 21 27 41 45 33 7 -2 15 -46 20 -111z m1756 76 c1 -35 16 -90 19 -73 1 6 3
19 4 30 1 24 49 33 72 14 14 -11 14 -23 4 -222 0 -9 -131 1 -142 12 -9 8 -22
236 -15 255 4 9 18 16 32 16 21 0 25 -5 26 -32z m2319 27 c0 -13 -105 -103
-113 -98 -6 3 -7 2 -4 -3 3 -6 -3 -15 -14 -22 -11 -7 -19 -8 -19 -2 0 5 -7 10
-15 10 -8 0 -15 4 -15 9 0 11 -39 26 -57 23 -18 -4 -16 13 3 29 12 10 17 10
23 0 6 -10 10 -9 14 4 4 9 3 13 -2 10 -5 -3 -13 0 -17 6 -4 8 -9 7 -16 -2 -7
-10 -11 -11 -14 -2 -6 13 -35 6 -46 -11 -6 -8 -8 -8 -8 0 0 6 -7 11 -15 11 -9
0 -14 -6 -11 -14 4 -9 1 -11 -5 -7 -6 4 -15 1 -19 -6 -5 -9 -9 -8 -13 3 -17
45 50 65 221 66 78 1 142 -1 142 -4z m-3788 -273 c3 -250 9 -235 -77 -204
l-50 18 -2 169 c-2 139 0 173 13 193 12 18 21 22 40 18 13 -4 24 -2 24 3 0 16
32 43 41 34 4 -4 9 -108 11 -231z m3513 198 c3 -5 -1 -10 -10 -10 -9 0 -13 5
-10 10 3 6 8 10 10 10 2 0 7 -4 10 -10z m-1126 -23 c6 -8 14 -27 17 -44 5 -26
2 -31 -18 -36 -47 -13 -53 -9 -53 36 0 54 27 76 54 44z m-1121 -9 c28 -28 6
-98 -32 -98 -8 0 -17 -4 -20 -9 -9 -13 -172 -25 -297 -22 -41 1 -47 4 -51 24
-4 21 1 25 40 36 31 8 48 9 56 1 17 -17 35 -12 29 9 -6 22 5 30 67 52 54 20
191 24 208 7z m1037 -8 c-3 -5 -1 -10 4 -10 6 0 9 -10 7 -22 -3 -25 -39 -33
-66 -16 -12 7 -10 8 5 4 25 -7 50 8 40 24 -6 9 -10 9 -17 -1 -8 -11 -11 -11
-15 -1 -4 10 -8 10 -19 1 -8 -7 -17 -9 -21 -5 -10 10 4 19 32 19 14 0 28 3 31
8 3 5 10 9 15 9 6 0 7 -4 4 -10z m1318 -24 c-4 -6 -8 -6 -11 2 -2 8 -8 8 -19
-3 -8 -8 -19 -15 -24 -15 -6 0 -3 7 5 16 9 8 16 20 16 25 0 5 9 4 19 -3 11 -7
17 -17 14 -22z m277 -126 c31 -11 90 -19 152 -22 36 -1 53 -7 69 -26 11 -13
15 -22 8 -20 -7 2 -21 -4 -31 -14 -28 -28 -93 -23 -158 12 -30 17 -65 30 -78
30 -13 0 -32 5 -43 11 -16 8 -27 5 -54 -15 -19 -14 -38 -26 -44 -26 -7 0 -11
-23 -11 -55 l0 -55 -62 0 c-57 1 -122 8 -248 28 -36 6 -44 11 -42 26 3 14 -1
17 -13 12 -9 -3 -14 -2 -10 3 6 11 84 9 102 -2 7 -4 49 -3 95 3 45 5 84 10 85
10 2 0 3 5 3 10 0 6 -10 10 -22 8 -13 -1 -56 1 -96 6 -77 9 -96 23 -85 64 5
21 11 22 167 24 191 4 282 0 316 -12z m-1110 -29 c0 -5 28 -38 63 -74 89 -94
127 -137 127 -144 0 -3 -6 -1 -13 5 -8 7 -18 7 -27 2 -12 -8 -12 -10 3 -10 10
0 15 -5 12 -10 -4 -7 -17 -4 -35 7 -26 15 -28 19 -15 33 18 20 20 39 3 22 -19
-19 -32 -14 -17 6 12 15 12 16 -2 4 -17 -13 -49 -7 -49 9 0 5 -6 9 -12 9 -7
-1 3 -15 22 -31 31 -28 32 -30 10 -24 -14 4 -29 14 -33 22 -5 7 -12 11 -17 8
-7 -4 -46 8 -105 35 -81 36 -121 50 -141 50 -13 0 -24 4 -24 9 0 5 9 7 20 4
28 -7 25 13 -5 41 -14 13 -25 25 -25 27 0 8 260 8 260 0z m-2871 -247 c18 -16
29 -98 30 -217 1 -69 -2 -89 -14 -93 -8 -4 -15 -13 -15 -21 0 -8 -4 -11 -10
-8 -5 3 -10 36 -10 72 0 66 -12 83 -15 20 -6 -171 -8 -200 -12 -185 -3 11 -13
17 -26 15 -22 -2 -22 0 -25 157 -2 141 -1 157 13 146 11 -9 15 -9 15 -1 0 6
-7 14 -15 17 -23 9 -21 111 3 117 25 6 65 -3 81 -19z m3185 -54 c18 -6 26 -17
26 -33 0 -23 -3 -24 -102 -30 -57 -4 -114 -10 -128 -13 -14 -3 -63 -10 -110
-15 -47 -5 -128 -14 -180 -20 -52 -5 -160 -14 -240 -19 -80 -5 -174 -14 -210
-20 -36 -6 -114 -15 -175 -20 -60 -6 -171 -17 -245 -25 -74 -9 -174 -18 -221
-21 -81 -6 -86 -5 -91 14 -4 14 -1 23 11 26 79 22 368 61 636 86 66 6 183 18
260 25 77 8 194 19 260 24 66 6 129 14 140 17 11 3 88 12 170 19 83 7 155 13
162 14 6 0 23 -3 37 -9z m-644 -215 c-7 -9 -8 -15 -2 -15 5 0 13 -7 16 -16 3
-8 2 -13 -2 -10 -4 2 -14 1 -22 -5 -13 -7 -12 -9 2 -9 21 0 30 -13 22 -34 -6
-16 -7 -17 -244 -41 -85 -9 -168 -18 -185 -21 -16 -2 -68 -11 -115 -19 -93
-16 -301 -41 -393 -48 -52 -3 -57 -2 -51 15 3 11 0 20 -10 24 -21 8 -20 31 2
38 9 3 42 8 72 11 30 4 57 9 60 12 5 5 -97 -1 -207 -13 -43 -4 -53 -3 -53 10
0 29 -9 27 450 76 102 11 253 27 335 35 83 9 157 17 165 19 8 2 50 4 94 5 69
1 77 -1 66 -14z m-2547 -120 c-3 -9 -8 -14 -10 -11 -3 3 -2 9 2 15 9 16 15 13
8 -4z m-50 -79 c15 5 17 -1 16 -42 -1 -27 -3 -41 -6 -31 -5 19 -18 23 -28 8
-3 -5 0 -13 6 -17 8 -4 7 -9 -2 -16 -10 -7 -8 -8 9 -5 14 3 22 0 22 -8 0 -13
-35 -27 -44 -17 -3 3 -6 37 -6 76 0 41 4 65 8 58 5 -7 16 -10 25 -6z m-109
-341 c4 -143 28 -298 49 -324 13 -15 21 -222 12 -307 -5 -42 -11 -53 -34 -67
-16 -9 -31 -14 -34 -10 -4 3 -4 51 -1 107 6 104 -2 176 -31 281 -32 119 -53
263 -48 329 5 62 9 70 65 135 16 19 17 16 22 -144z m2043 103 c-2 -13 -4 -5
-4 17 -1 22 1 32 4 23 2 -10 2 -28 0 -40z m1787 -324 c9 -8 16 -24 16 -34 0
-14 -9 -19 -47 -22 -30 -2 -51 1 -60 10 -14 14 -17 44 -6 55 13 13 82 7 97 -9z
m1499 -618 c15 -16 32 -114 22 -125 -4 -3 -106 -8 -227 -9 -174 -3 -222 -1
-229 9 -6 10 5 18 39 31 26 10 55 18 64 18 13 0 141 38 268 80 37 12 47 12 63
-4z m-5246 -91 c3 -11 4 -28 4 -37 0 -9 7 -22 15 -29 10 -8 14 -8 14 0 0 6 -5
11 -11 11 -8 0 -8 4 0 14 8 10 9 16 1 21 -21 13 -9 25 25 25 31 0 35 -3 35
-26 0 -17 -4 -23 -12 -18 -9 5 -8 2 1 -9 8 -10 11 -21 7 -25 -11 -10 -254 -13
-260 -3 -3 5 8 14 24 21 17 7 30 18 30 25 0 18 70 55 99 52 15 -1 26 -9 28
-22z"/>
<path d="M6240 4461 c0 -6 5 -13 10 -16 6 -3 10 1 10 9 0 9 -4 16 -10 16 -5 0
-10 -4 -10 -9z"/>
<path d="M6260 4419 c0 -5 5 -7 10 -4 6 3 10 8 10 11 0 2 -4 4 -10 4 -5 0 -10
-5 -10 -11z"/>
<path d="M6200 4340 c0 -5 5 -10 11 -10 5 0 7 5 4 10 -3 6 -8 10 -11 10 -2 0
-4 -4 -4 -10z"/>
<path d="M6090 4019 c0 -5 5 -7 10 -4 6 3 10 8 10 11 0 2 -4 4 -10 4 -5 0 -10
-5 -10 -11z"/>
<path d="M6059 4008 c-7 -25 -7 -48 1 -48 6 0 10 11 10 25 0 20 -7 35 -11 23z"/>
<path d="M5920 3819 c0 -14 7 -19 28 -18 19 1 21 3 8 6 -13 4 -15 7 -7 13 9 5
6 9 -8 13 -16 4 -21 0 -21 -14z"/>
<path d="M5603 3633 c9 -2 23 -2 30 0 6 3 -1 5 -18 5 -16 0 -22 -2 -12 -5z"/>
<path d="M5290 3230 l-25 -8 28 -1 c15 -1 27 4 27 9 0 6 -1 10 -2 9 -2 -1 -14
-5 -28 -9z"/>
<path d="M5818 3193 c7 -3 16 -2 19 1 4 3 -2 6 -13 5 -11 0 -14 -3 -6 -6z"/>
<path d="M1916 828 c3 -5 10 -6 15 -3 13 9 11 12 -6 12 -8 0 -12 -4 -9 -9z"/>
<path d="M1958 818 c-11 -10 -13 -18 -6 -18 6 0 9 -3 6 -6 -4 -3 -17 0 -30 7
-23 13 -64 13 -83 0 -10 -6 -63 -18 -175 -41 -30 -6 -64 -15 -75 -20 -11 -5
-38 -14 -60 -20 -22 -6 -49 -17 -59 -25 -23 -17 -30 -59 -9 -51 18 7 16 -5 -3
-33 -14 -19 -14 -25 -3 -32 8 -5 9 -9 4 -9 -6 0 -12 -11 -13 -25 -1 -16 3 -25
13 -25 20 0 19 -17 -2 -29 -16 -9 -16 -10 -2 -16 11 -4 44 12 92 43 72 47 104
62 287 132 100 39 112 48 114 88 1 16 7 36 14 45 8 9 12 24 10 34 -3 18 -4 18
-20 1z"/>
<path d="M3786 2467 c3 -10 9 -15 12 -12 3 3 0 11 -7 18 -10 9 -11 8 -5 -6z"/>
<path d="M3687 2429 c7 -7 15 -10 18 -7 3 3 -2 9 -12 12 -14 6 -15 5 -6 -5z"/>
<path d="M3670 2400 c0 -5 5 -10 10 -10 6 0 10 5 10 10 0 6 -4 10 -10 10 -5 0
-10 -4 -10 -10z"/>
<path d="M3710 2400 c0 -5 5 -10 11 -10 5 0 7 5 4 10 -3 6 -8 10 -11 10 -2 0
-4 -4 -4 -10z"/>
<path d="M1037 2013 c-20 -20 20 -73 55 -73 21 0 26 48 6 68 -13 13 -50 16
-61 5z"/>
<path d="M2178 2223 c7 -3 16 -2 19 1 4 3 -2 6 -13 5 -11 0 -14 -3 -6 -6z"/>
<path d="M4778 2023 c7 -3 16 -2 19 1 4 3 -2 6 -13 5 -11 0 -14 -3 -6 -6z"/>
<path d="M3710 2039 c0 -5 5 -7 10 -4 6 3 10 8 10 11 0 2 -4 4 -10 4 -5 0 -10
-5 -10 -11z"/>
<path d="M3788 1983 c7 -3 16 -2 19 1 4 3 -2 6 -13 5 -11 0 -14 -3 -6 -6z"/>
<path d="M3930 1969 c0 -5 5 -7 10 -4 6 3 10 8 10 11 0 2 -4 4 -10 4 -5 0 -10
-5 -10 -11z"/>
<path d="M3865 1950 c3 -5 8 -10 11 -10 2 0 4 5 4 10 0 6 -5 10 -11 10 -5 0
-7 -4 -4 -10z"/>
<path d="M3905 1940 c3 -5 8 -10 11 -10 2 0 4 5 4 10 0 6 -5 10 -11 10 -5 0
-7 -4 -4 -10z"/>
<path d="M4000 1939 c0 -5 5 -7 10 -4 6 3 10 8 10 11 0 2 -4 4 -10 4 -5 0 -10
-5 -10 -11z"/>
<path d="M4046 1884 c-5 -12 -2 -15 10 -10 8 3 18 6 20 6 3 0 2 5 -1 10 -9 15
-22 12 -29 -6z"/>
<path d="M1010 1650 c0 -5 5 -10 11 -10 5 0 7 5 4 10 -3 6 -8 10 -11 10 -2 0
-4 -4 -4 -10z"/>
<path d="M970 1509 c0 -5 5 -7 10 -4 6 3 10 8 10 11 0 2 -4 4 -10 4 -5 0 -10
-5 -10 -11z"/>
<path d="M972 1478 c2 -6 10 -14 16 -16 7 -2 10 2 6 12 -7 18 -28 22 -22 4z"/>
<path d="M4535 4829 c-88 -13 -100 -19 -25 -13 71 6 154 22 110 22 -14 0 -52
-4 -85 -9z"/>
<path d="M5393 4723 c9 -2 25 -2 35 0 9 3 1 5 -18 5 -19 0 -27 -2 -17 -5z"/>
<path d="M3595 4460 c-142 -5 -249 -22 -260 -40 -8 -13 254 -22 345 -11 115
14 205 34 205 46 0 12 -86 14 -290 5z"/>
<path d="M1 2154 c0 -11 3 -14 6 -6 3 7 2 16 -1 19 -3 4 -6 -2 -5 -13z"/>
<path d="M218 2033 c7 -3 16 -2 19 1 4 3 -2 6 -13 5 -11 0 -14 -3 -6 -6z"/>
<path d="M443 1723 c8 -10 29 -45 45 -78 29 -57 82 -130 82 -112 0 21 -76 164
-98 184 -29 27 -53 31 -29 6z"/>
<path d="M3 1435 c0 -22 2 -30 4 -17 2 12 2 30 0 40 -3 9 -5 -1 -4 -23z"/>
<path d="M5 720 c0 -366 1 -515 2 -332 2 182 2 482 0 665 -1 182 -2 33 -2
-333z"/>
</g>
</svg>
